<?xml version="1.0" standalone="no"?>
<!DOCTYPE svg PUBLIC "-//W3C//DTD SVG 20010904//EN"
 "http://www.w3.org/TR/2001/REC-SVG-20010904/DTD/svg10.dtd">
<svg version="1.0" xmlns="http://www.w3.org/2000/svg"
 width="1096.000000pt" height="1096.000000pt" viewBox="0 0 1096.000000 1096.000000"
 preserveAspectRatio="xMidYMid meet">
<metadata>
Created by potrace 1.14, written by Peter Selinger 2001-2017
</metadata>
<g transform="translate(0.000000,1096.000000) scale(0.100000,-0.100000)"
fill="#000000" stroke="none">
<path d="M5220 10799 c-1894 -90 -3620 -1209 -4483 -2907 -561 -1102 -722
-2336 -461 -3542 50 -232 147 -565 206 -709 6 -14 12 -30 14 -36 32 -110 228
-537 308 -675 8 -14 45 -79 82 -145 153 -272 374 -577 618 -853 84 -95 91
-101 97 -79 4 13 10 312 14 663 4 352 8 641 10 644 1 3 6 82 10 175 17 440 49
571 198 822 91 154 355 490 526 668 37 39 85 93 106 120 80 101 152 183 265
300 64 66 135 144 159 173 25 28 46 50 48 48 2 -2 -9 -42 -26 -89 -41 -118
-61 -221 -61 -320 l0 -85 -55 -22 c-31 -13 -54 -24 -52 -26 2 -3 19 2 38 10
73 30 79 30 79 1 0 -14 5 -47 12 -72 10 -42 9 -48 -8 -59 -50 -33 -58 -44 -18
-25 l40 20 19 -54 18 -54 -69 -66 c-68 -66 -46 -59 31 9 40 36 55 43 55 27 0
-18 106 -170 167 -238 35 -40 91 -92 123 -115 32 -24 59 -45 59 -48 1 -6 -148
-144 -240 -221 -30 -26 -97 -83 -149 -129 -52 -45 -165 -139 -250 -209 -184
-153 -256 -222 -325 -316 -47 -64 -95 -144 -95 -161 0 -3 21 22 46 56 25 34
47 60 50 58 2 -3 -9 -40 -25 -84 -36 -99 -48 -178 -56 -374 -7 -150 -5 -165
44 -505 65 -459 107 -764 121 -900 22 -208 57 -386 79 -409 27 -27 27 -29 -13
192 -44 237 -60 373 -51 431 16 107 82 266 242 586 106 212 196 376 251 460
l86 130 9 -60 c5 -33 9 -172 10 -310 2 -218 -1 -269 -21 -400 -41 -262 -33
-402 29 -526 17 -35 17 -38 -6 -146 -13 -60 -32 -143 -44 -184 -17 -64 -70
-301 -87 -394 l-6 -30 186 -94 c103 -52 188 -92 190 -90 22 24 199 405 245
526 58 155 75 196 161 378 177 378 232 499 257 563 13 35 60 145 104 245 44
100 96 226 114 282 18 55 56 165 84 245 28 80 51 153 51 163 0 10 4 16 8 13 4
-2 9 -42 10 -88 1 -46 7 -128 13 -183 16 -140 15 -397 0 -470 -7 -33 -28 -109
-48 -170 -40 -127 -53 -248 -33 -311 32 -98 111 -164 196 -164 30 0 70 -8 95
-20 86 -39 179 -17 217 50 12 21 25 30 43 30 34 0 88 37 116 79 31 46 30 100
-6 258 l-30 128 -4 405 c-3 223 -9 536 -15 695 -6 160 -13 367 -15 460 l-4
170 50 100 c42 82 66 115 137 186 136 137 295 207 529 234 276 32 565 -16 821
-138 71 -34 229 -124 279 -159 56 -39 209 -189 299 -291 189 -217 279 -341
387 -532 94 -166 117 -221 181 -429 85 -280 101 -417 110 -971 6 -323 4 -380
-14 -550 -12 -104 -26 -246 -32 -315 -16 -174 -37 -330 -59 -427 -10 -46 -16
-83 -14 -83 16 0 210 88 366 165 310 156 573 318 849 527 167 127 413 342 412
361 -1 8 4 13 10 11 20 -8 327 314 474 496 29 36 58 72 65 80 29 33 138 181
209 285 720 1050 1042 2331 902 3590 -48 432 -136 811 -284 1225 -200 556
-502 1091 -879 1555 -133 164 -153 187 -336 373 -688 703 -1571 1207 -2525
1441 -352 86 -668 133 -1034 151 -209 11 -274 11 -506 -1z m1878 -3124 c103
-269 230 -495 404 -714 56 -71 58 -76 53 -120 -2 -25 -7 -84 -10 -131 -7 -98
-31 -310 -45 -390 -5 -30 -17 -102 -26 -160 -9 -58 -29 -157 -44 -220 -15 -63
-40 -173 -55 -245 -103 -496 -231 -895 -342 -1064 -83 -127 -274 -331 -366
-392 -68 -45 -80 -43 -197 24 -186 108 -461 187 -710 204 -244 16 -518 -53
-686 -172 -35 -26 -68 -44 -72 -41 -4 3 -32 45 -62 94 -29 50 -84 127 -122
173 -38 45 -77 96 -88 114 l-19 31 30 78 c20 51 36 120 46 195 19 145 7 282
-37 411 l-29 85 30 115 c22 84 32 148 36 236 6 134 -4 186 -40 206 -25 14
-152 13 -235 0 -29 -5 -55 -6 -57 -2 -2 3 23 33 56 66 123 121 286 370 376
574 28 65 36 75 60 78 312 33 687 142 969 283 100 49 204 104 231 122 28 18
69 43 92 57 149 89 263 165 379 254 73 55 176 134 229 174 53 40 121 95 151
122 31 28 59 47 63 43 3 -5 20 -44 37 -88z m-4082 -1674 c5 -6 50 -23 99 -40
50 -16 113 -38 140 -50 28 -11 58 -22 69 -26 16 -4 11 -11 -28 -36 l-47 -31
-95 16 c-52 9 -101 16 -108 16 -17 0 -38 -105 -38 -191 1 -70 -17 -123 -34
-106 -13 13 -9 331 5 395 14 62 19 70 37 53z m1732 -29 c36 -24 32 -236 -7
-362 -37 -121 -82 -293 -76 -298 2 -3 13 15 24 39 13 28 22 38 25 29 49 -134
63 -246 48 -384 -23 -212 -82 -335 -237 -494 -131 -135 -188 -180 -286 -229
-64 -31 -84 -36 -146 -37 -58 0 -72 -3 -70 -15 3 -19 -35 -27 -198 -41 -71 -6
-149 -12 -172 -14 -30 -2 -51 2 -74 18 -84 55 -96 59 -151 61 -53 2 -61 6
-153 75 -107 80 -203 186 -271 298 l-44 73 31 27 c61 51 174 132 187 132 6 0
12 -5 12 -11 0 -24 104 -118 167 -150 64 -32 72 -34 172 -34 80 0 111 4 128
16 21 14 15 15 -86 11 -84 -3 -120 -1 -157 12 -62 21 -130 71 -179 130 -37 45
-37 47 -19 62 18 14 18 15 -3 5 -18 -9 -24 -7 -37 11 -9 12 -16 26 -16 30 0 4
23 17 50 29 28 12 49 24 46 26 -2 3 -26 -5 -51 -16 -26 -12 -51 -21 -55 -21
-12 0 -33 68 -25 80 3 5 18 10 33 11 15 0 50 7 77 15 l50 13 -45 -4 c-25 -2
-65 -7 -88 -11 l-44 -7 21 41 c21 42 83 98 139 126 40 21 46 17 33 -17 -17
-43 -2 -67 55 -93 l52 -23 -19 -73 c-29 -114 -23 -150 10 -50 26 83 41 96 41
38 0 -39 36 -170 56 -205 l15 -26 -5 35 c-3 19 -12 59 -20 87 -8 29 -18 84
-22 123 l-7 70 47 0 c54 0 122 30 131 59 10 32 -17 72 -70 103 l-50 30 50 -6
c28 -4 82 -19 120 -34 56 -21 84 -41 141 -97 39 -38 76 -84 82 -102 l10 -31
-121 4 -122 3 119 -13 c94 -11 123 -18 133 -33 11 -14 15 -15 22 -4 7 11 31 8
137 -14 71 -15 140 -30 153 -33 17 -3 22 -1 19 9 -5 15 -130 50 -244 69 -69
11 -71 12 -91 53 -50 103 -169 196 -297 232 -137 40 -382 -19 -467 -112 -26
-28 -53 -73 -63 -105 -3 -10 -13 -18 -23 -18 -10 0 -54 -11 -98 -25 -44 -14
-84 -25 -89 -25 -16 0 1 231 23 305 29 99 70 193 102 239 38 52 182 200 243
248 191 152 551 220 826 157 l55 -12 -32 -10 c-18 -6 -33 -14 -33 -18 0 -9 23
-6 130 16 62 13 292 50 355 58 59 8 180 7 193 -1z m-1586 -171 l57 -6 -89 -83
-90 -83 0 64 c0 35 3 79 6 96 6 29 9 32 33 25 14 -3 52 -9 83 -13z m-54 -814
c7 -18 12 -36 12 -40 0 -12 -203 -108 -211 -100 -6 7 -30 115 -26 120 8 7 168
52 187 52 21 1 29 -6 38 -32z m42 -86 c15 -29 13 -35 -22 -56 -18 -10 -66 -42
-105 -72 l-73 -53 -15 36 c-8 20 -15 42 -15 48 0 11 192 116 211 116 5 0 13
-9 19 -19z m3996 -309 c0 -127 7 -218 22 -322 12 -80 31 -211 42 -292 23 -169
65 -363 114 -525 18 -62 32 -113 30 -113 -2 0 -15 21 -30 48 -40 69 -126 192
-201 285 -123 155 -423 465 -463 479 -11 4 -3 16 30 43 98 83 269 265 316 336
27 42 67 113 89 157 22 45 42 82 45 82 3 0 5 -80 6 -178z m-2425 1 c13 -21 30
-45 39 -53 42 -40 102 -124 150 -208 29 -51 56 -95 61 -98 10 -6 -58 -94 -71
-94 -4 0 -32 22 -61 50 -34 32 -55 46 -60 38 -4 -7 -9 -4 -13 8 -7 25 2 -66
20 -196 9 -64 18 -261 24 -500 5 -217 12 -438 15 -490 4 -52 11 -275 15 -495
8 -377 10 -406 34 -515 41 -183 33 -235 -44 -275 -51 -26 -56 -22 -69 70 -7
47 -17 88 -23 91 -6 4 -6 -9 -2 -33 16 -80 9 -157 -16 -192 -42 -60 -128 -78
-198 -42 -60 30 -95 104 -100 211 -3 55 -8 78 -13 65 -21 -55 1 -177 43 -230
l22 -28 -55 5 c-110 9 -179 100 -179 235 0 60 8 98 45 209 39 119 46 155 60
297 11 122 12 184 5 252 -15 132 -29 478 -24 570 3 44 12 122 21 174 l16 95
22 -27 c33 -37 38 -22 11 32 -29 56 -95 226 -147 376 -21 61 -38 99 -38 85 -1
-26 42 -197 79 -315 22 -73 23 -104 4 -361 l-7 -91 -126 -6 c-134 -6 -304 -40
-387 -76 -25 -12 -50 -19 -54 -16 -4 2 -5 28 -3 57 3 39 2 49 -6 38 -6 -8 -11
-24 -11 -35 0 -11 -5 -27 -10 -35 -14 -23 -76 42 -102 109 -18 48 -22 75 -21
187 0 72 3 143 7 158 6 24 9 26 22 15 9 -7 3 13 -14 47 -74 146 -142 371 -142
471 0 22 3 24 23 19 59 -18 162 -22 307 -10 136 12 302 34 366 50 18 5 22 0
28 -38 10 -62 28 -108 43 -108 7 0 13 8 13 19 0 29 73 132 164 229 46 49 87
95 92 103 5 8 39 40 75 71 36 31 83 82 105 112 21 30 40 55 41 56 1 0 12 -17
24 -37z m-1393 -643 c98 -52 122 -82 193 -235 13 -27 23 -65 22 -85 -4 -155
-25 -429 -41 -545 -31 -217 -46 -451 -38 -615 6 -145 9 -165 41 -295 10 -38
29 -115 42 -170 26 -109 46 -330 35 -384 -10 -46 -53 -78 -84 -64 -22 10 -23
15 -24 134 0 68 -4 138 -9 154 l-9 30 -7 -30 c-4 -16 -7 -61 -8 -100 -3 -140
-47 -229 -128 -256 -52 -17 -90 11 -136 102 -32 63 -39 88 -46 164 l-7 90 -8
-55 c-10 -72 7 -170 39 -227 14 -25 25 -49 25 -54 0 -5 -15 -9 -34 -9 -71 0
-123 78 -146 218 -13 80 -3 254 25 432 9 52 18 128 22 169 7 82 -11 524 -33
794 -34 432 -29 577 25 719 32 81 47 112 71 142 24 30 141 17 218 -24z m962
-771 c0 -29 -83 -310 -113 -384 l-25 -59 -74 -13 c-107 -18 -376 -111 -398
-138 -10 -13 -6 -12 26 1 98 41 421 130 432 119 3 -2 -11 -46 -30 -97 -28 -74
-40 -94 -59 -100 -205 -59 -391 -129 -378 -143 3 -2 45 11 94 30 106 39 271
82 280 73 4 -3 -16 -57 -43 -120 l-49 -113 -74 -22 c-72 -22 -154 -52 -215
-79 -16 -7 -44 -27 -62 -44 -17 -16 -36 -30 -42 -30 -13 0 -28 60 -39 164 -19
165 14 773 43 794 18 14 256 99 321 115 33 9 110 23 170 32 61 9 128 20 150
25 71 14 85 12 85 -11z m-630 -64 c21 -7 28 -25 10 -25 -6 0 -30 -9 -52 -20
-23 -11 -43 -20 -45 -20 -5 0 -3 56 3 89 l6 31 29 -24 c16 -14 38 -27 49 -31z"/>
<path d="M4998 6558 c-51 -13 -113 -78 -136 -141 -40 -107 -36 -270 8 -357 43
-85 147 -142 218 -119 71 22 100 47 134 117 32 65 33 71 32 192 0 136 -6 159
-63 238 -55 75 -105 93 -193 70z"/>
<path d="M6774 6434 c-65 -34 -89 -57 -114 -112 -47 -100 -59 -239 -28 -347
28 -97 119 -175 205 -175 79 0 188 101 218 203 9 29 18 93 22 144 5 80 3 99
-16 151 -23 62 -48 91 -115 136 -51 34 -107 34 -172 0z"/>
<path d="M5370 4832 c-30 -2 -59 -7 -63 -12 -5 -4 94 -8 220 -9 211 -1 312 -7
517 -32 106 -12 173 -12 160 1 -12 12 -201 36 -394 50 -123 9 -297 10 -440 2z"/>
<path d="M4338 5748 c-34 -7 -48 -15 -48 -27 0 -31 186 -261 211 -261 18 0 8
17 -32 55 -46 45 -173 204 -168 210 2 2 48 7 101 11 147 10 170 -14 134 -142
-23 -83 -25 -95 -13 -91 14 4 39 108 40 166 1 36 -3 47 -26 67 -24 20 -38 24
-90 23 -34 -1 -83 -6 -109 -11z"/>
<path d="M3156 5461 c-49 -51 -38 -150 18 -165 62 -17 91 -2 115 61 12 29 11
38 -10 80 -21 42 -28 48 -59 51 -28 2 -41 -3 -64 -27z"/>
<path d="M3964 5446 c-29 -29 -34 -41 -34 -79 0 -78 30 -127 76 -127 33 0 101
35 114 59 15 29 12 78 -6 114 -40 76 -95 88 -150 33z"/>
<path d="M3720 4801 c58 -21 123 -47 145 -58 62 -32 226 -95 232 -90 12 13
-296 142 -412 173 -87 24 -74 14 35 -25z"/>
<path d="M3885 4827 c25 -17 225 -80 232 -73 6 6 -42 26 -107 45 -25 7 -54 17
-65 21 -11 5 -33 11 -50 15 -28 6 -29 5 -10 -8z"/>
<path d="M3881 3297 c-16 -20 -41 -84 -41 -104 1 -10 9 6 20 36 11 29 24 59
31 67 6 8 9 14 6 14 -2 0 -10 -6 -16 -13z"/>
<path d="M4576 2477 c3 -10 9 -15 12 -12 3 3 0 11 -7 18 -10 9 -11 8 -5 -6z"/>
<path d="M4110 3009 c-85 -22 -214 -66 -345 -120 -155 -64 -103 -59 80 6 97
35 190 66 208 70 67 13 177 48 177 56 0 13 -36 9 -120 -12z"/>
<path d="M6030 1676 c-143 -95 -217 -184 -314 -382 -30 -60 -70 -154 -90 -209
-20 -55 -47 -125 -61 -155 -13 -30 -36 -86 -50 -125 -14 -38 -37 -97 -50 -130
-13 -33 -60 -157 -104 -275 -43 -118 -82 -223 -86 -233 -5 -11 -2 -17 8 -17
10 0 36 59 82 183 37 100 85 225 106 277 72 180 147 375 184 475 48 130 143
321 199 399 52 73 108 126 194 184 34 24 62 45 62 47 0 11 -18 2 -80 -39z"/>
</g>
</svg>
